# xmcd
#
# Track frame offsets: 
#        183
#        13503
#        36918
#        60925
#
# Disc length: 1185 seconds
#
# Revision: 2
# Processed by: cddbd v1.5.2PL0 Copyright (c) Steve Scherf et al.
# Submitted via: ExactAudioCopy v1.0b1
#
DISCID=25049f04
DTITLE=D.R.O.P. - Jump Party
DYEAR=1900
DGENRE=
TTITLE0=D.R.O.P. - Jump Party (Radio edit)
TTITLE1=D.R.O.P. - Jump Party (Special remix)
TTITLE2=D.R.O.P. - Jump Party (Original mix)
TTITLE3=D.R.O.P. - Jump Party (Techno mix)
EXTD=
EXTT0=
EXTT1=
EXTT2=
EXTT3=
PLAYORDER=
